<svg width="27" height="27" viewBox="0 0 27 27" fill="none" xmlns="http://www.w3.org/2000/svg">
<path d="M12.7125 21.7125C12.5063 21.5062 12.3983 21.2437 12.3885 20.925C12.3795 20.6062 12.4781 20.3437 12.6844 20.1375L18.1969 14.625H5.625C5.30625 14.625 5.03888 14.517 4.82288 14.301C4.60763 14.0857 4.5 13.8187 4.5 13.5C4.5 13.1812 4.60763 12.9139 4.82288 12.6979C5.03888 12.4826 5.30625 12.375 5.625 12.375H18.1969L12.6844 6.86249C12.4781 6.65624 12.3795 6.39374 12.3885 6.07499C12.3983 5.75624 12.5063 5.49374 12.7125 5.28749C12.9188 5.08124 13.1813 4.97812 13.5 4.97812C13.8187 4.97812 14.0812 5.08124 14.2875 5.28749L21.7125 12.7125C21.825 12.8062 21.9049 12.9232 21.9521 13.0635C21.9986 13.2045 22.0219 13.35 22.0219 13.5C22.0219 13.65 21.9986 13.7906 21.9521 13.9219C21.9049 14.0531 21.825 14.175 21.7125 14.2875L14.2875 21.7125C14.0812 21.9187 13.8187 22.0219 13.5 22.0219C13.1813 22.0219 12.9188 21.9187 12.7125 21.7125V21.7125Z" fill="#000"/>
</svg>
