<svg width="27" height="27" viewBox="0 0 27 27" fill="none" xmlns="http://www.w3.org/2000/svg">
<path d="M14.2875 21.7125C14.4937 21.5062 14.6017 21.2437 14.6115 20.925C14.6205 20.6062 14.5219 20.3437 14.3156 20.1375L8.80313 14.625H21.375C21.6937 14.625 21.9611 14.517 22.1771 14.301C22.3924 14.0857 22.5 13.8187 22.5 13.5C22.5 13.1812 22.3924 12.9139 22.1771 12.6979C21.9611 12.4826 21.6937 12.375 21.375 12.375H8.80313L14.3156 6.86249C14.5219 6.65624 14.6205 6.39374 14.6115 6.07499C14.6017 5.75624 14.4937 5.49374 14.2875 5.28749C14.0812 5.08124 13.8187 4.97812 13.5 4.97812C13.1813 4.97812 12.9188 5.08124 12.7125 5.28749L5.2875 12.7125C5.175 12.8062 5.09512 12.9232 5.04787 13.0635C5.00137 13.2045 4.97812 13.35 4.97812 13.5C4.97812 13.65 5.00137 13.7906 5.04787 13.9219C5.09512 14.0531 5.175 14.175 5.2875 14.2875L12.7125 21.7125C12.9188 21.9187 13.1813 22.0219 13.5 22.0219C13.8187 22.0219 14.0812 21.9187 14.2875 21.7125V21.7125Z" fill="
#000"/>
</svg>
